<?xml version="1.0" standalone="no"?>
<!DOCTYPE svg PUBLIC "-//W3C//DTD SVG 20010904//EN"
 "http://www.w3.org/TR/2001/REC-SVG-20010904/DTD/svg10.dtd">
<svg version="1.0" xmlns="http://www.w3.org/2000/svg"
 width="600" height="600" viewBox="0 0 600.000000 600.000000"
 preserveAspectRatio="xMidYMid meet">
<metadata>
Created by samyush
</metadata>
<g transform="translate(0.000000,600.000000) scale(0.100000,-0.100000)"
fill="#FFFFFF" stroke="none">
<path d="M2820 5809 c-1070 -61 -2023 -748 -2434 -1754 -257 -630 -268 -1383
-31 -2031 45 -123 187 -414 252 -514 243 -380 525 -662 903 -903 100 -65 391
-207 514 -252 492 -180 1048 -219 1569 -109 888 187 1650 818 2000 1654 129
308 197 604 216 938 41 724 -188 1417 -653 1973 -438 524 -1063 874 -1741 974
-98 14 -388 36 -440 33 -11 0 -81 -4 -155 -9z m555 -408 c517 -84 967 -314
1336 -681 316 -315 537 -700 644 -1120 89 -351 98 -746 24 -1100 -163 -773
-700 -1427 -1429 -1738 -63 -27 -147 -59 -187 -71 -40 -12 -79 -24 -87 -27
-13 -5 -15 64 -18 523 -4 462 -6 535 -22 588 -24 84 -68 175 -105 217 -17 20
-31 38 -31 40 0 3 30 8 67 12 271 28 539 134 728 287 214 174 339 477 361 879
14 273 -49 513 -183 689 -26 35 -54 72 -61 81 -11 15 -9 30 8 91 43 156 36
338 -21 516 -26 80 -33 94 -55 99 -102 26 -354 -61 -584 -202 l-108 -65 -63
17 c-212 55 -592 80 -831 55 -99 -11 -337 -54 -372 -67 -7 -3 -24 13 -38 34
-68 101 -204 187 -346 217 -72 15 -285 21 -329 9 -26 -7 -56 -72 -84 -181 -33
-132 -21 -354 26 -468 l15 -35 -55 -73 c-153 -200 -214 -416 -202 -710 10
-239 54 -425 140 -602 118 -241 312 -397 620 -500 98 -33 300 -75 359 -75 15
0 28 -2 28 -5 0 -3 -20 -34 -45 -70 -42 -61 -95 -199 -95 -246 0 -60 -292
-110 -425 -74 -120 32 -235 128 -307 253 -104 184 -369 331 -447 248 -15 -16
-23 -38 -24 -62 -1 -39 -1 -39 93 -107 88 -64 157 -170 260 -397 35 -78 118
-158 210 -203 109 -53 221 -70 430 -65 91 3 173 8 183 13 16 7 17 -13 17 -334
0 -188 -1 -341 -3 -341 -9 0 -242 82 -296 105 -786 327 -1340 1037 -1476 1892
-23 139 -31 446 -16 585 61 557 286 1048 663 1443 400 419 912 674 1498 745
124 15 497 4 635 -19z"/>
</g>
</svg>
