<?xml version="1.0" standalone="no"?>
<!DOCTYPE svg PUBLIC "-//W3C//DTD SVG 20010904//EN"
 "http://www.w3.org/TR/2001/REC-SVG-20010904/DTD/svg10.dtd">
<svg version="1.0" xmlns="http://www.w3.org/2000/svg"
 width="680" height="680" viewBox="0 0 680.000000 680.000000"
 preserveAspectRatio="xMidYMid meet">
<metadata>
Created by potrace 1.16, written by Peter Selinger 2001-2019
</metadata>
<g transform="translate(0.000000,680.000000) scale(0.100000,-0.100000)"
fill="#BC9B81" stroke="none">
<path d="M975 6780 c-341 -72 -626 -273 -802 -568 -56 -94 -97 -193 -135 -326
l-32 -111 -4 -565 -3 -566 193 4 c106 2 201 8 210 13 9 5 38 9 65 9 26 0 72 3
101 6 50 6 52 8 52 36 0 21 -6 31 -20 35 -47 12 -14 23 70 23 84 0 117 -11 70
-23 -14 -3 -20 -14 -20 -31 0 -32 -21 -31 313 -7 168 13 263 24 273 32 12 9
17 10 23 1 5 -8 69 -7 255 6 l248 17 13 -25 c7 -14 16 -40 20 -57 l7 -33 110
0 109 0 79 72 c188 170 356 273 589 363 57 22 78 34 66 38 -9 4 -23 0 -32 -8
-9 -9 -23 -13 -34 -10 -12 4 -29 -1 -44 -13 -15 -12 -34 -18 -45 -15 -12 3
-20 0 -20 -6 0 -16 -68 -45 -101 -43 -17 2 -32 -6 -45 -23 -10 -14 -26 -25
-35 -25 -8 0 -19 -3 -23 -7 -4 -4 -19 -8 -34 -10 l-27 -2 27 10 c42 16 50 69
11 69 -10 0 -14 -6 -11 -18 4 -15 1 -18 -18 -14 -18 3 -24 0 -24 -12 0 -10 -5
-14 -11 -11 -6 4 -7 19 -4 36 7 33 -1 36 -33 13 -21 -14 -23 -14 -31 9 -6 14
-15 28 -21 32 -8 5 -8 11 1 21 6 7 9 20 6 28 -5 13 -1 13 28 -1 21 -10 40 -13
52 -8 17 8 16 9 -4 12 -12 2 -26 10 -32 17 -8 10 -4 12 19 8 25 -4 28 -1 23
17 -7 27 -23 38 -23 15 0 -16 -1 -16 -18 -1 -24 22 -35 21 -30 -1 4 -14 0 -18
-16 -18 -12 1 -20 -4 -19 -10 1 -7 -8 -9 -22 -6 -18 3 -25 0 -25 -12 0 -9 8
-16 20 -16 11 0 20 -7 20 -15 0 -20 -23 -19 -43 3 -10 11 -14 26 -10 40 4 18
1 22 -16 22 -37 0 -59 18 -111 92 -33 47 -48 78 -44 90 3 12 0 18 -10 18 -12
0 -14 7 -9 33 3 17 7 34 9 36 2 2 -1 12 -7 22 -11 22 -35 25 -42 7 -5 -13 -11
16 -8 40 1 6 -3 12 -9 12 -5 0 -10 9 -10 20 0 13 5 18 15 14 12 -5 15 2 15 31
0 42 -20 44 -31 4 -6 -21 -7 -21 -8 -3 -1 11 4 25 10 31 6 6 8 17 3 24 -10 17
-12 59 -2 59 4 0 8 -13 8 -29 0 -30 19 -45 45 -35 19 8 19 33 0 54 -14 16 -13
16 20 6 19 -6 31 -12 25 -14 -13 -5 -13 -32 -1 -32 51 0 55 45 7 65 -44 19
-53 33 -30 50 27 21 36 18 23 -6 -12 -24 1 -39 35 -39 14 0 16 3 8 13 -6 7 -7
19 -3 26 6 10 10 9 15 -5 5 -13 9 -15 18 -6 7 7 20 12 30 12 22 0 23 13 2 31
-14 11 -11 15 23 36 24 14 46 20 58 16 17 -5 18 -4 8 9 -7 8 -10 17 -7 20 6 7
-70 38 -94 38 -14 0 -12 4 8 20 14 11 20 20 14 20 -6 0 -17 12 -24 28 -7 15
-15 22 -17 15 -5 -15 -43 -18 -43 -4 0 5 10 12 23 15 l22 6 -25 14 c-23 13
-25 12 -44 -25 -17 -34 -21 -37 -30 -22 -5 10 -14 21 -19 24 -18 12 2 39 27
39 29 0 76 19 76 32 0 4 11 8 25 8 14 0 25 5 25 11 0 5 5 7 10 4 25 -15 0 -77
-27 -68 -23 8 0 -38 26 -52 26 -13 30 -12 72 26 l44 40 -37 -5 c-21 -2 -40 0
-43 5 -4 5 3 9 15 9 12 0 19 4 15 9 -3 5 0 13 6 16 7 5 3 12 -10 22 -12 8 -21
21 -21 29 0 8 -5 14 -11 14 -6 0 -9 -7 -5 -15 3 -8 1 -15 -4 -15 -6 0 -10 6
-10 14 0 29 22 28 55 -4 18 -18 38 -29 44 -26 16 11 13 24 -6 29 -13 3 -12 5
5 6 14 1 22 6 19 14 -5 13 -10 13 -42 1 -19 -7 -20 -6 -1 8 25 20 8 30 -31 19
-17 -5 -36 -5 -43 -1 -7 5 -18 7 -24 6 -6 -2 -8 -1 -3 1 4 3 7 15 7 28 0 12 7
28 15 35 8 7 15 19 15 27 0 8 5 13 11 11 6 -2 10 -7 10 -11 -1 -4 -1 -17 -1
-28 0 -16 -5 -20 -20 -16 -27 7 -26 -9 1 -24 19 -10 25 -7 45 17 13 16 23 39
24 52 0 13 6 22 16 22 14 0 14 3 3 18 -11 14 -11 15 1 5 16 -15 64 -18 55 -4
-3 5 -1 12 4 15 5 3 11 -3 14 -14 3 -11 13 -20 22 -20 13 0 16 7 13 30 -4 23
1 33 19 45 28 19 21 37 -12 29 -12 -3 -26 -1 -29 4 -9 16 33 25 49 12 8 -7 22
-10 31 -6 12 4 15 0 12 -17 -2 -12 -10 -22 -18 -22 -22 0 -46 -35 -30 -45 9
-6 9 -12 1 -29 -15 -26 -1 -27 32 -1 14 11 31 20 38 20 10 0 10 3 1 12 -18 18
-15 27 8 21 11 -3 20 0 20 6 0 6 -6 11 -14 11 -9 0 -12 7 -9 20 4 15 11 19 32
15 14 -3 20 -2 14 1 -17 8 -16 24 1 24 7 0 19 7 26 15 9 11 16 13 24 5 14 -14
27 -13 25 3 -3 24 1 38 10 32 5 -3 12 -1 15 3 3 5 18 7 32 4 23 -4 26 -2 21
12 -4 10 -7 20 -7 22 0 2 -12 4 -27 4 -16 0 -35 4 -43 10 -18 11 -30 -5 -30
-39 0 -20 -3 -22 -12 -13 -16 16 -28 15 -28 -2 0 -8 -4 -17 -9 -20 -5 -4 -7 2
-4 13 6 23 -16 38 -29 20 -8 -12 -9 -11 -5 1 2 8 18 16 35 18 18 2 30 8 26 13
-3 5 11 16 32 25 28 12 39 13 44 4 6 -10 16 -10 44 0 20 6 36 15 36 20 0 11
43 0 52 -13 3 -6 2 -21 -3 -34 -4 -12 -6 -30 -3 -38 4 -8 1 -15 -5 -15 -6 0
-11 -13 -11 -30 0 -34 6 -37 31 -14 13 12 22 13 36 5 26 -13 85 -11 80 3 -2 6
-29 12 -60 14 -42 2 -57 7 -57 17 0 18 9 19 45 5 33 -13 30 10 -3 25 -12 5
-22 13 -22 17 0 13 17 9 30 -7 15 -18 37 -19 43 -2 3 6 6 2 6 -10 1 -27 17
-30 25 -5 4 13 17 17 51 18 45 1 71 13 48 21 -7 3 -13 9 -13 14 0 5 6 9 13 9
6 0 19 4 27 10 12 7 11 12 -5 30 -15 17 -16 20 -3 15 9 -4 19 -13 22 -21 3 -8
12 -11 22 -7 14 5 14 3 3 -16 -8 -11 -19 -21 -26 -21 -7 0 -13 -9 -13 -20 0
-11 5 -20 10 -20 6 0 10 -7 10 -15 0 -9 6 -12 16 -8 8 3 13 12 10 19 -4 9 2
14 16 14 17 0 18 3 8 15 -7 8 -9 22 -6 31 11 29 -2 52 -27 48 -12 -2 -16 -2
-9 2 8 4 1 13 -20 28 -31 21 -33 21 -40 4 -6 -15 -12 -16 -34 -8 -56 22 -42
-10 19 -42 52 -27 27 -37 -36 -14 -70 25 -82 25 -79 -4 2 -23 -1 -25 -38 -28
-38 -2 -40 -1 -31 17 18 32 13 41 -21 42 -30 0 -31 1 -10 9 13 6 32 6 48 0 35
-13 37 -13 31 8 -4 16 7 22 72 37 42 10 97 19 123 20 47 2 48 2 48 -26 0 -21
4 -27 15 -23 8 4 21 1 29 -5 10 -9 16 -7 26 4 11 13 10 18 -6 31 -19 15 -19
15 1 9 43 -16 68 -18 61 -6 -4 6 -2 11 3 11 6 0 11 -18 11 -40 0 -28 4 -40 14
-40 10 0 12 7 9 23 -4 17 -3 19 6 11 9 -9 19 -9 37 0 26 12 33 46 8 46 -8 0
-12 -4 -9 -10 3 -6 -1 -7 -9 -4 -10 4 -16 1 -16 -7 0 -7 -3 -9 -6 -6 -4 4 -1
13 6 22 10 13 9 15 -10 15 -13 0 -20 5 -17 13 6 17 137 17 137 0 0 -14 28 -17
54 -7 9 3 13 11 10 16 -4 6 2 8 12 6 23 -4 31 -43 14 -64 -9 -10 -9 -14 -1
-14 19 0 12 -27 -9 -33 -11 -3 -20 -13 -20 -22 0 -16 2 -16 25 -1 24 16 25 15
25 -3 0 -11 5 -23 10 -26 6 -4 10 8 10 29 0 28 4 36 18 36 16 1 16 1 0 11 -27
15 -21 29 13 29 27 0 30 3 24 23 -5 19 -4 20 5 5 15 -24 40 -23 40 1 0 17 5
19 38 15 56 -8 62 -12 62 -34 0 -11 7 -20 15 -20 8 0 15 8 15 17 0 13 6 11 30
-12 33 -32 54 -27 24 6 l-19 21 35 -7 c45 -9 46 -10 30 -40 -10 -18 -10 -28
-2 -38 7 -8 9 -17 5 -20 -13 -13 -32 -7 -38 13 -10 31 -50 54 -72 41 -17 -9
-17 -10 0 -16 26 -11 20 -20 -14 -21 -25 -1 -30 2 -27 20 3 23 -8 46 -23 46
-5 0 -9 -13 -9 -29 0 -16 -7 -34 -15 -41 -22 -18 -18 -40 8 -41 17 -1 18 -2 4
-6 -24 -6 -48 15 -45 41 2 13 -3 22 -14 24 -11 2 -18 -3 -18 -12 0 -9 -7 -16
-15 -16 -8 0 -15 -4 -15 -10 0 -5 12 -10 26 -10 21 0 24 -3 15 -14 -9 -11 -5
-16 18 -26 16 -6 34 -9 39 -6 5 3 12 -3 15 -14 5 -20 37 -29 37 -10 0 6 -5 10
-11 10 -5 0 -7 5 -3 11 4 8 9 8 17 0 16 -16 27 -13 21 4 -4 8 -2 15 4 15 6 0
12 -6 15 -12 3 -10 8 -9 22 2 17 14 18 13 12 -12 -8 -29 0 -58 15 -58 5 0 8 8
6 18 -3 14 4 17 42 16 25 0 47 3 50 7 3 5 16 6 28 2 18 -4 20 -8 11 -19 -6 -8
-19 -14 -27 -14 -12 0 -13 -3 -5 -11 8 -8 17 -8 33 1 24 13 43 4 21 -9 -10 -6
-10 -10 -2 -16 7 -4 19 -1 27 6 12 10 13 9 9 -3 -4 -10 2 -17 17 -22 34 -9 66
-7 70 3 3 8 37 15 66 12 25 -2 11 -21 -17 -21 -16 0 -34 -7 -41 -15 -18 -21
-6 -29 19 -13 18 11 23 10 37 -10 13 -19 17 -20 30 -8 8 8 14 19 14 25 0 6 9
11 21 11 35 0 58 18 52 40 -5 19 -2 20 27 15 24 -4 36 -1 45 11 7 10 17 14 24
9 9 -5 1 -14 -25 -29 -36 -20 -47 -41 -57 -105 -3 -24 72 -35 94 -15 10 9 24
14 31 11 10 -4 10 -6 1 -6 -7 -1 -13 -6 -13 -12 0 -6 9 -9 20 -6 15 4 20 0 20
-15 0 -18 4 -20 32 -14 18 3 38 12 43 19 13 15 65 22 65 8 0 -6 -13 -11 -30
-11 -25 0 -30 -5 -39 -37 -6 -21 -11 -50 -11 -65 0 -16 -5 -28 -11 -28 -7 0
-9 11 -6 29 8 38 0 44 -31 23 -14 -9 -34 -15 -44 -14 -37 6 -16 -20 35 -43 60
-29 102 -33 93 -10 -4 11 2 15 23 15 42 0 44 11 9 47 -17 18 -28 33 -23 33 22
0 148 -55 134 -58 -10 -2 -19 -12 -22 -23 -3 -11 -14 -19 -25 -19 -31 0 -92
-29 -92 -44 0 -7 10 -21 23 -30 20 -15 19 -15 -18 0 -53 21 -71 22 -66 4 2 -8
4 -21 4 -27 0 -7 8 -13 18 -13 9 0 20 -7 23 -16 5 -14 1 -16 -28 -11 -33 5
-34 4 -23 -14 6 -10 18 -19 25 -19 7 0 23 -10 36 -23 21 -21 25 -22 34 -8 10
14 11 14 11 -2 1 -12 7 -17 18 -15 25 5 27 25 4 33 -12 3 -21 11 -21 16 0 5
16 3 35 -6 32 -13 37 -13 42 0 3 8 13 15 23 15 29 0 50 11 50 26 0 8 -6 14
-12 14 -10 0 -10 2 0 9 17 11 62 2 62 -13 -1 -38 -14 -56 -41 -56 -19 0 -29
-5 -29 -15 0 -8 8 -15 17 -15 9 0 14 -3 11 -6 -4 -3 -23 -1 -43 5 -50 14 -65
5 -65 -35 0 -28 7 -39 42 -64 22 -16 49 -30 60 -30 10 0 28 -6 39 -12 17 -11
23 -10 39 10 22 27 40 28 40 2 0 -25 -58 -37 -100 -20 -29 12 -55 6 -45 -11 4
-5 17 -9 30 -9 34 0 39 -15 9 -29 -19 -8 -25 -17 -21 -31 4 -16 2 -17 -14 -7
-15 9 -22 7 -42 -11 -15 -14 -30 -20 -40 -16 -23 8 -21 24 2 24 10 0 24 7 31
15 7 9 21 13 30 10 9 -3 23 2 30 11 19 22 -2 34 -62 34 -38 0 -48 -4 -53 -20
-4 -14 -15 -20 -36 -20 -23 0 -29 -4 -29 -22 0 -17 3 -19 12 -10 20 20 51 -5
43 -35 -3 -15 -1 -31 7 -41 12 -14 8 -15 -28 -9 -39 6 -42 5 -47 -19 -3 -19 2
-29 19 -40 13 -9 27 -13 32 -10 12 7 21 -36 14 -69 -2 -14 -10 -25 -18 -25 -7
0 -11 6 -8 13 3 8 -2 19 -9 26 -12 9 -16 8 -20 -3 -4 -9 -14 -12 -27 -9 -16 4
-19 2 -14 -11 4 -10 1 -16 -10 -16 -13 0 -36 -28 -36 -44 0 -11 36 -6 47 5 17
17 93 20 86 3 -3 -7 -10 -12 -15 -11 -6 1 -13 -4 -15 -10 -3 -7 3 -13 12 -13
12 0 15 -6 10 -20 -5 -16 -2 -20 18 -20 14 0 31 -8 38 -17 12 -15 12 -16 -6
-9 -11 4 -44 10 -73 13 -46 5 -52 4 -46 -11 8 -21 -4 -20 -61 5 -38 17 -49 18
-56 8 -9 -15 37 -60 83 -81 14 -7 28 -23 31 -35 5 -27 -10 -40 -26 -24 -9 9
-8 14 3 21 13 9 13 11 0 20 -8 5 -28 10 -45 9 -36 0 -117 -16 -92 -18 10 0 16
-5 12 -11 -4 -6 -15 -6 -31 0 -40 15 -45 12 -42 -22 2 -28 7 -33 28 -33 14 0
29 -6 33 -12 4 -7 14 -13 21 -13 8 0 16 -7 20 -15 3 -8 10 -15 16 -15 6 0 9 4
6 9 -7 11 11 26 43 36 35 11 18 -11 -35 -45 -24 -15 -40 -31 -36 -35 4 -4 -17
-5 -46 -4 -28 2 -52 1 -52 -2 0 -4 -13 -9 -30 -11 -41 -6 -39 14 5 48 34 26
35 28 18 46 -17 19 -18 19 -27 -1 -8 -18 -10 -19 -32 -5 -20 14 -25 14 -47 -1
-14 -9 -28 -23 -31 -32 -6 -14 -8 -14 -21 3 -9 12 -14 14 -15 6 0 -15 -21 -12
-22 3 -1 12 -117 46 -135 40 -7 -2 -26 3 -42 11 -17 9 -41 14 -53 12 -14 -2
32 -21 111 -47 245 -80 467 -209 650 -378 l85 -78 1007 -5 c653 -3 1011 -9
1018 -15 5 -5 19 -73 30 -150 12 -77 29 -174 39 -215 17 -74 17 -61 20 680 2
632 0 769 -13 841 -29 173 -105 364 -168 424 -18 17 -61 68 -96 114 -182 234
-439 390 -744 451 -97 20 -146 20 -2391 19 -2208 0 -2294 -1 -2381 -19z m253
-107 c-41 -6 -34 -19 21 -37 57 -18 61 -19 80 -7 10 7 11 13 2 30 -11 19 -9
21 19 21 27 0 30 -3 30 -31 0 -29 2 -31 30 -27 22 3 30 1 30 -11 0 -9 8 -25
16 -36 16 -20 16 -20 31 3 10 15 26 22 46 22 17 0 27 -3 24 -7 -10 -9 13 -33
30 -33 10 0 14 7 10 20 -3 13 0 20 9 20 10 0 12 -8 7 -31 -5 -28 -4 -30 20
-27 15 2 29 7 33 11 4 4 17 4 28 1 17 -4 24 1 33 23 8 21 11 -155 12 -691 l1
-720 -27 -28 -27 -28 27 0 c15 0 27 -5 27 -11 0 -8 -12 -10 -35 -6 -33 5 -34
5 -24 -16 12 -21 12 -21 -17 -3 -16 10 -37 27 -47 39 -18 20 -17 21 13 33 17
7 37 11 45 8 11 -4 15 1 15 16 0 16 4 20 15 16 8 -3 15 -1 15 4 0 6 -6 10 -14
10 -7 0 -16 9 -19 20 -4 17 -14 20 -72 20 -58 0 -66 -2 -61 -16 4 -10 -1 -25
-10 -35 -22 -25 -37 -24 -29 1 3 11 2 20 -3 20 -5 0 -13 -10 -17 -22 -6 -20
-8 -21 -12 -5 -3 11 -10 16 -20 13 -8 -3 -17 -6 -19 -6 -2 0 -4 -8 -4 -19 0
-14 6 -17 24 -14 13 3 27 0 30 -6 4 -7 -1 -11 -13 -11 -21 0 -28 -14 -13 -24
4 -2 23 -1 42 4 20 4 26 9 15 9 -19 2 -19 2 -2 12 26 15 52 3 68 -34 8 -17 20
-31 27 -29 8 1 11 -2 7 -7 -3 -6 -21 -13 -40 -17 -33 -6 -59 -24 -36 -24 6 0
11 -4 11 -10 0 -5 -18 -10 -40 -10 -49 0 -53 20 -12 63 l27 30 -25 -6 c-14 -4
-35 -7 -47 -7 -20 0 -23 -5 -23 -35 0 -21 5 -35 13 -36 10 0 10 -2 0 -6 -8 -2
-13 -22 -13 -44 l0 -39 -326 0 -326 0 4 834 c1 459 6 837 10 841 3 4 23 2 44
-4 27 -7 51 -7 82 1 35 9 46 8 52 -3 7 -11 15 -11 43 -1 44 16 67 15 67 -2 0
-29 20 -27 26 3 6 26 10 29 34 25 19 -4 29 -1 33 10 7 18 -7 30 -25 21 -7 -4
-4 1 6 9 11 9 36 15 55 15 31 -2 32 -3 9 -6z m4911 -673 c38 -71 53 -129 52
-203 0 -66 -15 -91 -61 -102 l-25 -6 -2 113 c-3 146 -16 239 -43 291 l-20 42
35 -40 c19 -22 48 -65 64 -95z m31 -374 c0 -19 5 -36 12 -38 17 -6 -6 -103
-42 -175 -102 -203 -315 -343 -522 -343 -85 0 -209 17 -251 35 -17 7 -43 25
-56 39 -36 39 -19 49 60 37 95 -16 346 -14 402 3 26 8 64 28 86 45 45 36 48
37 53 14 2 -14 19 -2 66 47 75 79 143 205 162 303 13 71 30 90 30 33z"/>
<path d="M3170 5003 c-72 -8 -266 -56 -342 -84 -805 -297 -1231 -1173 -967
-1989 272 -840 1182 -1296 2025 -1015 236 78 429 199 615 385 230 229 360 464
435 785 26 112 28 135 28 335 1 237 -12 323 -75 512 -182 547 -666 961 -1237
1059 -108 18 -369 25 -482 12z m405 -77 c33 -9 92 -32 132 -50 131 -62 244
-208 262 -338 4 -32 10 -59 12 -61 2 -2 39 -29 82 -61 42 -32 77 -59 77 -61 0
-2 -16 2 -35 8 -60 18 -65 0 -50 -160 8 -72 8 -72 -19 -79 l-26 -6 19 -27 c11
-15 33 -52 50 -83 l31 -57 -63 -35 c-35 -20 -73 -36 -84 -36 -11 0 -28 -9 -38
-20 -10 -11 -25 -20 -34 -20 -9 1 -45 33 -80 71 -54 60 -63 74 -53 88 6 9 19
32 27 51 9 19 23 43 33 53 16 19 16 19 -5 13 -45 -14 -61 -13 -173 10 -154 32
-288 39 -425 21 -126 -16 -125 -17 -207 58 -36 32 -103 74 -183 115 -119 60
-128 63 -163 52 l-37 -11 35 30 c19 16 61 47 92 67 51 33 60 44 79 97 35 97
106 220 148 258 59 53 149 93 286 126 56 14 239 6 310 -13z m584 -1090 c33
-34 65 -115 54 -141 -3 -8 -17 -18 -32 -21 -14 -3 -43 -10 -65 -16 -21 -5 -40
-7 -43 -4 -3 2 -16 1 -29 -4 -19 -8 -27 -5 -41 16 -10 14 -28 38 -40 54 -30
37 -29 43 10 64 17 9 54 32 82 51 27 19 55 35 60 35 6 0 26 -15 44 -34z m408
-198 c40 -185 14 -444 -64 -643 -43 -111 -61 -134 -27 -36 36 103 54 208 54
312 0 89 0 89 -24 83 -18 -4 -25 -1 -29 15 -5 21 26 153 43 183 6 10 10 50 10
90 -1 67 -4 89 -24 183 -3 17 5 0 18 -37 14 -38 33 -105 43 -150z m-1135 -47
c51 -19 54 -37 12 -91 -20 -27 -45 -52 -53 -55 -19 -7 -111 84 -111 110 0 20
78 57 107 50 12 -3 33 -9 45 -14z m-608 -1208 c173 -59 289 -73 606 -73 259 0
401 12 476 40 25 10 26 9 13 -6 -12 -15 -11 -16 11 -10 14 4 65 27 114 52 54
27 93 41 99 35 15 -15 -26 -92 -74 -140 -136 -135 -323 -200 -624 -217 -254
-15 -551 79 -701 220 -76 72 -89 111 -37 111 l32 0 -27 23 -27 23 34 -17 c19
-9 67 -27 105 -41z"/>
<path d="M1695 4533 c-86 -5 -105 -10 -105 -33 0 -14 5 -18 16 -13 29 11 11
-31 -19 -45 -24 -12 -31 -11 -52 2 -21 14 -27 14 -53 0 -44 -21 -82 -5 -82 36
0 28 -3 30 -35 30 -24 0 -35 -5 -35 -15 0 -18 12 -19 27 -4 18 18 35 1 21 -21
-29 -46 -101 -41 -123 8 -12 28 -42 29 -50 2 -11 -34 -46 -50 -103 -47 -47 2
-52 4 -52 25 0 17 -6 22 -27 22 -25 -1 -26 -2 -10 -14 9 -7 17 -16 17 -20 0
-3 -58 -6 -130 -6 -116 0 -156 8 -117 23 9 4 9 6 -1 6 -7 1 -15 -6 -18 -14 -5
-13 -31 -15 -169 -13 -90 2 -166 0 -170 -4 -12 -12 24 -65 71 -107 82 -72 84
-72 655 -69 l504 3 51 27 c82 43 137 116 153 203 l8 45 -56 -2 c-31 -1 -83 -3
-116 -5z"/>
<path d="M3 3660 c1 -476 4 -791 7 -700 10 223 10 1363 1 1475 -5 50 -8 -299
-8 -775z"/>
<path d="M6745 2685 c-37 -53 -44 -82 -75 -298 -34 -233 -55 -336 -100 -472
-39 -122 -57 -220 -75 -415 -25 -260 -95 -488 -201 -652 -38 -59 -132 -181
-153 -198 -3 -3 -28 -32 -56 -65 -56 -66 -157 -178 -247 -271 -89 -94 -234
-161 -383 -178 -27 -3 -169 -10 -315 -16 -146 -6 -299 -12 -340 -15 -390 -24
-2727 -43 -3105 -25 -284 14 -416 37 -537 94 -30 14 -126 73 -213 131 -87 58
-162 105 -167 105 -5 0 -35 16 -66 37 l-57 36 -157 2 c-127 1 -161 5 -182 18
-67 44 -197 344 -227 526 -5 31 -14 123 -19 204 -10 144 -38 316 -59 367 -18
43 -6 -550 12 -630 60 -252 166 -448 332 -615 171 -172 414 -298 649 -340 78
-13 363 -15 2388 -15 2266 0 2301 0 2399 20 443 91 792 402 927 830 51 163 53
206 50 1070 l-3 795 -20 -30z"/>
<path d="M1770 2657 c0 -19 108 -217 163 -300 106 -158 291 -336 472 -452 395
-255 887 -344 1355 -243 499 107 921 417 1154 849 61 114 59 123 -5 18 -400
-663 -1140 -990 -1894 -838 -504 101 -952 436 -1204 899 -22 41 -41 71 -41 67z"/>
</g>
</svg>
