<?xml version="1.0" standalone="no"?>
<!DOCTYPE svg PUBLIC "-//W3C//DTD SVG 20010904//EN"
 "http://www.w3.org/TR/2001/REC-SVG-20010904/DTD/svg10.dtd">
<svg version="1.0" xmlns="http://www.w3.org/2000/svg"
 width="1280" height="901" viewBox="0 0 1280.000000 901.000000"
 preserveAspectRatio="xMidYMid meet">
<metadata>
Created by potrace 1.16, written by Peter Selinger 2001-2019
</metadata>
<g transform="translate(0.000000,901.000000) scale(0.100000,-0.100000)"
fill="#F30100" stroke="none">
<path d="M5000 8999 c-1787 -36 -3021 -118 -3533 -234 -285 -64 -535 -199
-752 -407 -231 -220 -387 -487 -464 -795 -238 -945 -322 -3123 -186 -4803 56
-694 144 -1239 240 -1495 183 -486 591 -857 1095 -995 642 -175 2794 -281
5435 -267 1209 7 1868 22 2705 62 1096 53 1749 126 2039 226 536 187 921 619
1054 1184 58 243 107 565 146 952 20 197 21 258 21 2097 0 1837 -1 1901 -20
2088 -52 490 -128 901 -206 1120 -162 451 -549 829 -999 977 -472 155 -1671
247 -3805 291 -537 11 -2204 11 -2770 -1z m1830 -3528 c916 -527 1665 -962
1665 -966 0 -8 -3324 -1925 -3337 -1925 -5 0 -8 866 -8 1925 0 1059 3 1925 8
1925 4 0 756 -431 1672 -959z"/>
</g>
</svg>
